<?xml version="1.0" standalone="no"?><!DOCTYPE svg PUBLIC "-//W3C//DTD SVG 1.1//EN" "http://www.w3.org/Graphics/SVG/1.1/DTD/svg11.dtd"><svg t="1727355738454" class="icon" viewBox="0 0 1024 1024" version="1.1" xmlns="http://www.w3.org/2000/svg" p-id="8711" xmlns:xlink="http://www.w3.org/1999/xlink" width="128" height="128"><path d="M578.522 403.054l180.316-180.316c-2.29-7.748-5.564-111.656-95.46-201.514L642.168 0.02 514.88 127.276l21.216 21.216c58.486 58.486 58.486 153.648 0 212.134z" fill="#D1F05A" p-id="8712"></path><path d="M202.69 1005.02l-56.92 18.96-25.82-77.48L42.43 1024l-21.22-21.2v-0.02l-21.2-21.2 77.5-77.52-77.5-25.82 18.98-56.92 123.54 41.18 9.48 9.48v0.02l9.5 9.48z" fill="#866D67" p-id="8713"></path><path d="M202.69 1005.02l-56.92 18.96-25.82-77.48L42.43 1024l-21.22-21.2v-0.02l130.8-130.78 9.5 9.48z" fill="#68544F" p-id="8714"></path><path d="M960.37 63.64L896.73 0l-360.64 360.62 42.44 42.44c31.24-31.26 68.56-53.8 109.06-66.66h0.02c70.74-22.42 126.28-8 134.9-7.6l201.48-201.52z" fill="#B9DD39" p-id="8715"></path><path d="M1023.99 127.28L822.51 328.8c-8.62-0.4-64.16-14.82-134.9 7.6l272.76-272.76z" fill="#90CC1C" p-id="8716"></path><path d="M533.23 618.08c-53.36 53.84-87.2 129-100.6 223.46-5.04 35.68-20.62 67.44-45.02 91.86-74.06 74.04-197.9 56.64-275.78-21.22v-0.02c-78.5-78.5-94.26-202.72-21.22-275.76 24.4-24.38 56.16-39.96 91.86-45.04 94.5-13.38 169.72-47.26 223.46-100.58l84.06 43.22h0.02z" fill="#EFE2DD" p-id="8717"></path><path d="M533.23 618.08c-53.36 53.84-87.2 129-100.6 223.46-5.04 35.68-20.62 67.44-45.02 91.86-74.06 74.04-197.9 56.64-275.78-21.22v-0.02L489.99 534h0.02z" fill="#E1D3CE" p-id="8718"></path><path d="M1023.99 381.84l-127.26 127.28-21.22-21.2c-58.58-58.62-153.52-58.64-212.12 0-0.2 0.2-127.62 127.58-130.12 130.14-0.02 0-0.04 0.02-0.04 0.02l-63.66-63.64v-0.02l-63.64-63.64c8.2-7.6 51.18-51.16 130.16-130.16 61.98-61.96 142.52-94.18 223.78-96.5h0.02c87.6-2.54 176.02 29.6 242.9 96.52z" fill="#90CC1C" p-id="8719"></path><path d="M1023.99 381.84l-127.26 127.28-21.22-21.2c-58.58-58.62-153.52-58.64-212.12 0-0.2 0.2-127.62 127.58-130.12 130.14-0.02 0-0.04 0.02-0.04 0.02l-63.66-63.64v-0.02l290.3-290.3h0.02c87.6-2.54 176.02 29.6 242.9 96.52zM445.478 403.054l-180.316-180.316c2.29-7.748 5.564-111.656 95.46-201.514L381.832 0.02l127.288 127.256-21.216 21.216c-58.486 58.486-58.486 153.648 0 212.134z" fill="#66BB00" p-id="8720"></path><path d="M946.49 904.06l77.5 77.52-21.2 21.22-21.22 21.2-77.52-77.5-25.82 77.48-56.92-18.96 41.18-123.54 9.5-9.48 9.48-9.5 123.54-41.18 18.98 56.92z" fill="#866D67" p-id="8721"></path><path d="M946.49 904.06l77.5 77.52-21.2 21.22-130.8-130.8 9.48-9.5 123.54-41.18 18.98 56.92z" fill="#68544F" p-id="8722"></path><path d="M127.27 0l-63.64 63.64L0.01 127.28l201.48 201.52c8.332-0.384 64.452-14.734 134.9 7.6 40.5 12.86 77.84 35.4 109.08 66.66l42.44-42.44z" fill="#B9DD39" p-id="8723"></path><path d="M487.91 360.62l-42.44 42.44c-31.24-31.26-68.58-53.8-109.08-66.66L63.63 63.64 127.27 0z" fill="#90CC1C" p-id="8724"></path><path d="M912.17 912.18c-77.88 77.86-201.72 95.26-275.78 21.22-24.4-24.42-39.98-56.18-45.02-91.86-13.4-94.46-47.24-169.62-100.6-223.46l43.22-84.08 84.08-43.22c53.74 53.32 128.96 87.2 223.46 100.58 35.7 5.08 67.46 20.66 91.86 45.04 73.04 73.04 57.28 197.28-21.22 275.78z" fill="#EFE2DD" p-id="8725"></path><path d="M912.17 912.18L533.99 534l84.08-43.22c53.74 53.32 128.96 87.2 223.46 100.58 35.7 5.08 67.46 20.66 91.86 45.04 73.04 73.04 57.28 197.28-21.22 275.78z" fill="#E1D3CE" p-id="8726"></path><path d="M618.07 490.78l-63.64 63.66-63.66 63.64c-0.934-0.998-45.13-45.156-130.16-130.16-58.576-58.616-153.516-58.646-212.12 0l-21.22 21.2-127.26-127.28 21.2-21.2c66.88-66.92 155.3-99.06 242.9-96.52 81.26 2.32 161.82 34.54 223.8 96.5 0.204 0.204 129.17 129.24 130.16 130.16z" fill="#D1F05A" p-id="8727"></path><path d="M618.07 490.78l-63.64 63.66-290.32-290.32c81.26 2.32 161.82 34.54 223.8 96.5 0.204 0.204 129.17 129.24 130.16 130.16z" fill="#B9DD39" p-id="8728"></path></svg>